<mxfile host="app.diagrams.net" modified="2020-10-03T15:13:19.472Z" agent="5.0 (Macintosh; Intel Mac OS X 10_13_4) AppleWebKit/537.36 (KHTML, like Gecko) Chrome/85.0.4183.121 Safari/537.36" etag="nfis5YR3XVboIijNUABC" version="13.7.7" type="github">
  <diagram name="Page-1" id="74e2e168-ea6b-b213-b513-2b3c1d86103e">
    <mxGraphModel dx="1351" dy="877" grid="1" gridSize="10" guides="1" tooltips="1" connect="1" arrows="1" fold="1" page="1" pageScale="1" pageWidth="1100" pageHeight="850" background="#ffffff" math="0" shadow="0">
      <root>
        <mxCell id="0" />
        <mxCell id="1" parent="0" />
        <mxCell id="k65bAhtD_iv1GS-tVhwP-62" value="重定向，携带code" style="text;html=1;align=center;verticalAlign=middle;resizable=0;points=[];autosize=1;" vertex="1" parent="1">
          <mxGeometry x="395" y="384" width="110" height="20" as="geometry" />
        </mxCell>
        <mxCell id="k65bAhtD_iv1GS-tVhwP-60" style="edgeStyle=orthogonalEdgeStyle;rounded=0;orthogonalLoop=1;jettySize=auto;html=1;entryX=-0.03;entryY=1.259;entryDx=0;entryDy=0;entryPerimeter=0;" edge="1" parent="1" source="k65bAhtD_iv1GS-tVhwP-28" target="k65bAhtD_iv1GS-tVhwP-62">
          <mxGeometry relative="1" as="geometry">
            <mxPoint x="410" y="410" as="targetPoint" />
          </mxGeometry>
        </mxCell>
        <mxCell id="k65bAhtD_iv1GS-tVhwP-75" value="code换取ticket" style="text;html=1;align=center;verticalAlign=middle;resizable=0;points=[];autosize=1;" vertex="1" parent="1">
          <mxGeometry x="418" y="495" width="90" height="20" as="geometry" />
        </mxCell>
        <mxCell id="77e6c97f196da883-1" value="oAuth" style="swimlane;html=1;childLayout=stackLayout;startSize=20;rounded=0;shadow=0;labelBackgroundColor=none;strokeWidth=1;fontFamily=Verdana;fontSize=8;align=center;" parent="1" vertex="1">
          <mxGeometry x="10" y="10" width="690" height="590" as="geometry" />
        </mxCell>
        <mxCell id="77e6c97f196da883-2" value="浏览器" style="swimlane;html=1;startSize=20;" parent="77e6c97f196da883-1" vertex="1">
          <mxGeometry y="20" width="230" height="570" as="geometry" />
        </mxCell>
        <mxCell id="77e6c97f196da883-8" value="" style="rounded=1;whiteSpace=wrap;html=1;shadow=0;labelBackgroundColor=none;strokeWidth=1;fontFamily=Verdana;fontSize=8;align=center;" parent="77e6c97f196da883-2" vertex="1">
          <mxGeometry x="65" y="62.5" width="100" height="65" as="geometry" />
        </mxCell>
        <mxCell id="k65bAhtD_iv1GS-tVhwP-3" value="访问，携带来源标识" style="text;html=1;strokeColor=none;fillColor=none;align=center;verticalAlign=middle;whiteSpace=wrap;rounded=0;" vertex="1" parent="77e6c97f196da883-2">
          <mxGeometry x="170" y="65" width="120" height="20" as="geometry" />
        </mxCell>
        <mxCell id="77e6c97f196da883-26" style="edgeStyle=orthogonalEdgeStyle;rounded=1;html=1;labelBackgroundColor=none;startArrow=none;startFill=0;startSize=5;endArrow=classicThin;endFill=1;endSize=5;jettySize=auto;orthogonalLoop=1;strokeWidth=1;fontFamily=Verdana;fontSize=8;entryX=0;entryY=0.5;entryDx=0;entryDy=0;" parent="77e6c97f196da883-1" source="77e6c97f196da883-8" target="k65bAhtD_iv1GS-tVhwP-18" edge="1">
          <mxGeometry relative="1" as="geometry">
            <mxPoint x="280" y="114.99999999999989" as="targetPoint" />
          </mxGeometry>
        </mxCell>
        <mxCell id="77e6c97f196da883-4" value="第三方系统" style="swimlane;html=1;startSize=20;" parent="77e6c97f196da883-1" vertex="1">
          <mxGeometry x="230" y="20" width="230" height="570" as="geometry" />
        </mxCell>
        <mxCell id="k65bAhtD_iv1GS-tVhwP-67" value="应用" style="rounded=1;whiteSpace=wrap;html=1;shadow=0;labelBackgroundColor=none;strokeWidth=1;fontFamily=Verdana;fontSize=8;align=center;" vertex="1" parent="77e6c97f196da883-4">
          <mxGeometry x="50" y="350" width="100" height="60" as="geometry" />
        </mxCell>
        <mxCell id="k65bAhtD_iv1GS-tVhwP-18" value="检查登陆" style="rhombus;whiteSpace=wrap;html=1;" vertex="1" parent="77e6c97f196da883-4">
          <mxGeometry x="60" y="55" width="80" height="80" as="geometry" />
        </mxCell>
        <mxCell id="k65bAhtD_iv1GS-tVhwP-19" style="edgeStyle=orthogonalEdgeStyle;rounded=0;orthogonalLoop=1;jettySize=auto;html=1;entryX=0.5;entryY=0;entryDx=0;entryDy=0;" edge="1" parent="77e6c97f196da883-4" source="k65bAhtD_iv1GS-tVhwP-18" target="k65bAhtD_iv1GS-tVhwP-67">
          <mxGeometry relative="1" as="geometry">
            <mxPoint x="100" y="340" as="targetPoint" />
          </mxGeometry>
        </mxCell>
        <mxCell id="k65bAhtD_iv1GS-tVhwP-71" value="后端" style="rounded=1;whiteSpace=wrap;html=1;shadow=0;labelBackgroundColor=none;strokeWidth=1;fontFamily=Verdana;fontSize=8;align=center;" vertex="1" parent="77e6c97f196da883-4">
          <mxGeometry x="50" y="460" width="100" height="60" as="geometry" />
        </mxCell>
        <mxCell id="k65bAhtD_iv1GS-tVhwP-20" value="已登陆" style="text;html=1;align=center;verticalAlign=middle;resizable=0;points=[];autosize=1;" vertex="1" parent="77e6c97f196da883-4">
          <mxGeometry x="100" y="230" width="50" height="20" as="geometry" />
        </mxCell>
        <mxCell id="k65bAhtD_iv1GS-tVhwP-10" value="滴滴云" style="swimlane;html=1;startSize=20;" vertex="1" parent="77e6c97f196da883-1">
          <mxGeometry x="460" y="20" width="230" height="570" as="geometry" />
        </mxCell>
        <mxCell id="k65bAhtD_iv1GS-tVhwP-22" value="未登陆，携带AppId" style="text;html=1;strokeColor=none;fillColor=none;align=center;verticalAlign=middle;whiteSpace=wrap;rounded=0;" vertex="1" parent="k65bAhtD_iv1GS-tVhwP-10">
          <mxGeometry x="-70" y="70" width="120" height="20" as="geometry" />
        </mxCell>
        <mxCell id="k65bAhtD_iv1GS-tVhwP-25" style="edgeStyle=orthogonalEdgeStyle;rounded=0;orthogonalLoop=1;jettySize=auto;html=1;entryX=0.5;entryY=0;entryDx=0;entryDy=0;exitX=1;exitY=0.5;exitDx=0;exitDy=0;" edge="1" parent="k65bAhtD_iv1GS-tVhwP-10" source="k65bAhtD_iv1GS-tVhwP-15" target="k65bAhtD_iv1GS-tVhwP-24">
          <mxGeometry relative="1" as="geometry">
            <Array as="points">
              <mxPoint x="180" y="95" />
            </Array>
          </mxGeometry>
        </mxCell>
        <mxCell id="k65bAhtD_iv1GS-tVhwP-55" value="已授权" style="text;html=1;strokeColor=none;fillColor=none;align=center;verticalAlign=middle;whiteSpace=wrap;rounded=0;" vertex="1" parent="k65bAhtD_iv1GS-tVhwP-10">
          <mxGeometry y="270" width="70" height="20" as="geometry" />
        </mxCell>
        <mxCell id="k65bAhtD_iv1GS-tVhwP-28" value="" style="rounded=1;whiteSpace=wrap;html=1;shadow=0;labelBackgroundColor=none;strokeWidth=1;fontFamily=Verdana;fontSize=8;align=center;arcSize=34;" vertex="1" parent="k65bAhtD_iv1GS-tVhwP-10">
          <mxGeometry x="40" y="360" width="60" height="40" as="geometry" />
        </mxCell>
        <mxCell id="k65bAhtD_iv1GS-tVhwP-52" style="edgeStyle=orthogonalEdgeStyle;rounded=0;orthogonalLoop=1;jettySize=auto;html=1;exitX=0.5;exitY=1;exitDx=0;exitDy=0;entryX=0.5;entryY=0;entryDx=0;entryDy=0;" edge="1" parent="k65bAhtD_iv1GS-tVhwP-10" source="k65bAhtD_iv1GS-tVhwP-24" target="k65bAhtD_iv1GS-tVhwP-49">
          <mxGeometry relative="1" as="geometry" />
        </mxCell>
        <mxCell id="k65bAhtD_iv1GS-tVhwP-15" value="授权页面" style="rounded=1;whiteSpace=wrap;html=1;shadow=0;labelBackgroundColor=none;strokeWidth=1;fontFamily=Verdana;fontSize=8;align=center;" vertex="1" parent="k65bAhtD_iv1GS-tVhwP-10">
          <mxGeometry x="65" y="65" width="100" height="60" as="geometry" />
        </mxCell>
        <mxCell id="k65bAhtD_iv1GS-tVhwP-72" value="后端" style="rounded=1;whiteSpace=wrap;html=1;shadow=0;labelBackgroundColor=none;strokeWidth=1;fontFamily=Verdana;fontSize=8;align=center;" vertex="1" parent="k65bAhtD_iv1GS-tVhwP-10">
          <mxGeometry x="70" y="460" width="100" height="60" as="geometry" />
        </mxCell>
        <mxCell id="k65bAhtD_iv1GS-tVhwP-56" value="未授权" style="text;html=1;strokeColor=none;fillColor=none;align=center;verticalAlign=middle;whiteSpace=wrap;rounded=0;" vertex="1" parent="k65bAhtD_iv1GS-tVhwP-10">
          <mxGeometry x="120" y="270" width="70" height="20" as="geometry" />
        </mxCell>
        <mxCell id="k65bAhtD_iv1GS-tVhwP-57" style="edgeStyle=orthogonalEdgeStyle;rounded=0;orthogonalLoop=1;jettySize=auto;html=1;entryX=1;entryY=0.5;entryDx=0;entryDy=0;" edge="1" parent="k65bAhtD_iv1GS-tVhwP-10" source="k65bAhtD_iv1GS-tVhwP-49" target="k65bAhtD_iv1GS-tVhwP-28">
          <mxGeometry relative="1" as="geometry" />
        </mxCell>
        <mxCell id="k65bAhtD_iv1GS-tVhwP-49" value="登陆授权" style="rounded=1;whiteSpace=wrap;html=1;shadow=0;labelBackgroundColor=none;strokeWidth=1;fontFamily=Verdana;fontSize=8;align=center;" vertex="1" parent="k65bAhtD_iv1GS-tVhwP-10">
          <mxGeometry x="145" y="360" width="70" height="40" as="geometry" />
        </mxCell>
        <mxCell id="k65bAhtD_iv1GS-tVhwP-24" value="检查授权" style="rhombus;whiteSpace=wrap;html=1;" vertex="1" parent="k65bAhtD_iv1GS-tVhwP-10">
          <mxGeometry x="140" y="170" width="80" height="80" as="geometry" />
        </mxCell>
        <mxCell id="k65bAhtD_iv1GS-tVhwP-54" style="edgeStyle=orthogonalEdgeStyle;rounded=0;orthogonalLoop=1;jettySize=auto;html=1;exitX=0;exitY=0.5;exitDx=0;exitDy=0;entryX=0.5;entryY=0;entryDx=0;entryDy=0;" edge="1" parent="k65bAhtD_iv1GS-tVhwP-10" source="k65bAhtD_iv1GS-tVhwP-24" target="k65bAhtD_iv1GS-tVhwP-28">
          <mxGeometry relative="1" as="geometry" />
        </mxCell>
        <mxCell id="k65bAhtD_iv1GS-tVhwP-63" style="edgeStyle=orthogonalEdgeStyle;rounded=0;orthogonalLoop=1;jettySize=auto;html=1;exitX=0.5;exitY=1;exitDx=0;exitDy=0;" edge="1" parent="k65bAhtD_iv1GS-tVhwP-10" source="k65bAhtD_iv1GS-tVhwP-55" target="k65bAhtD_iv1GS-tVhwP-55">
          <mxGeometry relative="1" as="geometry" />
        </mxCell>
        <mxCell id="k65bAhtD_iv1GS-tVhwP-21" style="edgeStyle=orthogonalEdgeStyle;rounded=0;orthogonalLoop=1;jettySize=auto;html=1;entryX=0;entryY=0.5;entryDx=0;entryDy=0;" edge="1" parent="77e6c97f196da883-1" source="k65bAhtD_iv1GS-tVhwP-18" target="k65bAhtD_iv1GS-tVhwP-15">
          <mxGeometry relative="1" as="geometry" />
        </mxCell>
        <mxCell id="k65bAhtD_iv1GS-tVhwP-73" style="edgeStyle=orthogonalEdgeStyle;rounded=0;orthogonalLoop=1;jettySize=auto;html=1;entryX=0;entryY=0.5;entryDx=0;entryDy=0;" edge="1" parent="77e6c97f196da883-1" source="k65bAhtD_iv1GS-tVhwP-71" target="k65bAhtD_iv1GS-tVhwP-72">
          <mxGeometry relative="1" as="geometry" />
        </mxCell>
      </root>
    </mxGraphModel>
  </diagram>
</mxfile>
